<?xml version="1.0" encoding="UTF-8" standalone="no"?>
<!-- Created with Inkscape (http://www.inkscape.org/) -->

<svg
   version="1.0"
   inkscape:output_extension="org.inkscape.output.svg.inkscape"
   sodipodi:docname="Marx_Engels_Lenin.svg"
   inkscape:version="1.1 (c4e8f9ed74, 2021-05-24)"
   sodipodi:version="0.32"
   id="svg2"
   height="400.78488"
   width="493.21313"
   xmlns:inkscape="http://www.inkscape.org/namespaces/inkscape"
   xmlns:sodipodi="http://sodipodi.sourceforge.net/DTD/sodipodi-0.dtd"
   xmlns="http://www.w3.org/2000/svg"
   xmlns:svg="http://www.w3.org/2000/svg"
   xmlns:rdf="http://www.w3.org/1999/02/22-rdf-syntax-ns#"
   xmlns:cc="http://creativecommons.org/ns#"
   xmlns:dc="http://purl.org/dc/elements/1.1/">
  <defs
     id="defs4" />
  <sodipodi:namedview
     id="base"
     pagecolor="#ffffff"
     bordercolor="#666666"
     borderopacity="1.0"
     inkscape:pageopacity="0.0"
     inkscape:pageshadow="2"
     inkscape:zoom="1.89"
     inkscape:cx="112.96296"
     inkscape:cy="181.21693"
     inkscape:document-units="px"
     inkscape:current-layer="layer1"
     showgrid="false"
     inkscape:window-width="2560"
     inkscape:window-height="1011"
     inkscape:window-x="0"
     inkscape:window-y="32"
     inkscape:pagecheckerboard="0"
     inkscape:window-maximized="1" />
  <metadata
     id="metadata7">
    <rdf:RDF>
      <cc:Work
         rdf:about="">
        <dc:format>image/svg+xml</dc:format>
        <dc:type
           rdf:resource="http://purl.org/dc/dcmitype/StillImage" />
        <dc:title>Marx, Engels, Lenin</dc:title>
        <dc:date>2008-01-22</dc:date>
        <dc:creator>
          <cc:Agent>
            <dc:title>Julio Garay</dc:title>
          </cc:Agent>
        </dc:creator>
        <dc:subject>
          <rdf:Bag>
            <rdf:li>Marx Engels Lenin</rdf:li>
          </rdf:Bag>
        </dc:subject>
        <cc:license
           rdf:resource="http://creativecommons.org/licenses/by-nd/2.5/" />
      </cc:Work>
      <cc:License
         rdf:about="http://creativecommons.org/licenses/by-nd/2.5/">
        <cc:permits
           rdf:resource="http://web.resource.org/cc/Reproduction" />
        <cc:permits
           rdf:resource="http://web.resource.org/cc/Distribution" />
        <cc:requires
           rdf:resource="http://web.resource.org/cc/Notice" />
        <cc:requires
           rdf:resource="http://web.resource.org/cc/Attribution" />
      </cc:License>
    </rdf:RDF>
  </metadata>
  <g
     inkscape:label="Capa 1"
     inkscape:groupmode="layer"
     id="layer1"
     transform="translate(-87.4375,-166.27761)">
    <g
       id="g18764">
      <g
         id="g16793">
        <path
           style="opacity:1;fill:#b50014;fill-opacity:1;stroke:none;stroke-width:2;stroke-miterlimit:4;stroke-dasharray:none;stroke-opacity:1"
           d="M 91.287859,175.40012 L 172.10006,471.71153 C 247.14221,512.95248 402.29717,379.77245 579.15412,528.57938 C 515.28354,381.84351 578.21281,382.07883 580.65065,271.17755 C 462.44241,82.550537 178.94137,213.88918 91.287859,175.40012 z "
           id="path12908"
           sodipodi:nodetypes="ccccc" />
        <path
           style="opacity:1;fill:#b50014;fill-opacity:1;stroke:none;stroke-width:8;stroke-miterlimit:4;stroke-dasharray:none;stroke-opacity:1"
           d="M 95.15625,174.34375 L 87.4375,176.46875 L 195.1875,567.0625 L 202.90625,564.9375 L 95.15625,174.34375 z "
           id="path15817" />
      </g>
      <g
         transform="translate(7.4826114,14.965223)"
         id="g18753">
        <g
           id="g18741">
          <path
             sodipodi:nodetypes="cccccccccccc"
             id="path7057"
             d="M 344.39726,234.63469 C 339.57461,215.34592 313.56993,203.53213 298.93033,200.46687 C 273.13856,187.54997 239.83597,197.86604 231.7739,222.16645 C 207.98662,228.65104 207.5359,262.96316 200.32177,268.44976 C 199.4965,269.58949 199.14873,271.49491 199.78572,271.92582 C 213.00349,277.96966 200.49797,279.03224 193.05138,296.5249 C 192.931,297.4331 191.92613,300.82811 198.47627,304.66223 C 180.6228,309.80027 190.06724,327.43234 193.79964,328.98072 C 173.24084,347.32402 184.6594,368.25728 191.75521,378.55302 C 204.37039,386.20185 213.78835,387.45623 222.93643,388.17084 L 272.36705,390.5252 C 315.53834,389.55258 345.09269,344.27712 344.39726,234.63469 z "
             style="fill:#000000;fill-opacity:1;stroke:none;stroke-width:2;stroke-miterlimit:4;stroke-dasharray:none;stroke-opacity:1" />
          <path
             id="path8028"
             d="M 273.53125,196.40625 C 252.89233,196.89247 236.27517,209.13898 233.09375,224.03125 C 210.25869,229.57759 211.44001,254.38076 202.59375,268.5625 C 201.29778,269.50644 201.17664,271.65668 202.125,272.09375 C 214.27757,277.69439 197.75132,284.67691 195.28125,295.78125 C 193.54402,303.59106 204.56372,300.82955 206.53125,301.09375 C 210.33345,301.60431 214.16792,305.24005 216.8125,303.625 C 219.88046,301.75138 217.98492,298.58854 218.21875,296.34375 C 218.45077,294.11638 220.39969,295.24843 220.9375,297.9375 C 221.47531,300.62656 220.77368,302.61845 219.71875,304.5625 C 219.16973,305.57427 216.1189,306.01768 213.65625,306.125 C 213.64574,306.12104 213.63554,306.12896 213.625,306.125 C 211.36189,305.27413 208.5137,304.3552 206.34375,304.21875 C 206.0841,304.20242 205.83309,304.1825 205.59375,304.1875 C 202.00366,304.26254 200.65625,306.59375 200.65625,306.59375 C 194.14074,305.47011 189.93746,309.05556 189.40625,316.25 C 189.03802,321.23719 190.35781,326.50112 197.34375,328.65625 C 179.09259,340.83075 179.80621,358.61208 192.59375,377.21875 L 210.84375,382.78125 C 201.33286,360.30953 190.06816,346.65306 217.0625,335.5 C 223.20828,346.37602 231.45036,351.24217 242.59375,347.875 C 242.09384,335.87894 235.71951,336.14758 234.40625,326.5625 C 233.01601,326.88135 231.51065,325.4236 229.90625,322.96875 C 232.67405,322.58947 235.67968,320.68162 234.96875,319.4375 C 234.38152,313.06533 234.91016,307.67426 237.75,305.21875 L 242.4375,310.09375 C 241.65227,291.22116 263.17768,297.55108 257.03125,272.3125 L 246.46875,283.34375 C 242.27354,283.63953 237.25687,284.31587 233,287.34375 C 235.15194,283.89537 233.8442,282.0304 232.34375,279.3125 C 229.70825,279.1221 225.42528,278.25993 222.03125,279.78125 C 221.43497,282.83373 222.8529,283.78717 224.84375,285.40625 C 216.86182,286.34463 217.73566,277.79446 214.1875,276.59375 C 211.28176,275.47676 212.49807,272.058 211.84375,270.0625 C 214.83504,269.68136 216.91984,269.68871 218.875,268.5625 C 230.2455,262.01286 238.29991,269.92099 248.0625,274.53125 C 249.63156,273.20081 250.55012,273.23087 250.5625,270.34375 C 254.62909,270.59465 253.1343,266.35086 253.65625,264.4375 C 252.85834,264.32148 249.71922,262.19879 246,265.375 C 257.60684,248.6128 247.57733,242.58122 275.90625,227.96875 C 272.44391,232.39595 273.20444,232.69562 273,236.1875 C 288.59703,230.90439 276.17281,226.98307 296.125,219 C 284.35098,216.82605 285.34846,225.60291 273.125,219.90625 C 282.59216,213.58493 293.95187,208.95769 307.90625,206.625 C 296.25224,199.10257 284.34211,196.15156 273.53125,196.40625 z M 276.59375,205.15625 C 282.08191,205.13933 287.44685,205.65526 292.375,205.90625 C 283.5163,208.70974 270.11348,210.12952 260.78125,219.5625 C 253.81735,215.23659 247.77387,219.97831 242.625,221.03125 C 251.93536,207.73374 264.5198,205.19348 276.59375,205.15625 z M 229.09375,269.6875 C 227.24077,269.74477 225.73781,270.67713 222.21875,270.4375 C 221.65092,272.41893 221.20309,274.35194 222.59375,275.84375 C 233.37805,274.8106 233.5971,279.08328 241.03125,281.28125 C 241.52632,280.35203 242.35605,280.09185 242.1875,279.21875 C 241.88909,277.67299 238.59382,276.95139 238.1875,274.15625 C 233.17115,270.4255 230.94673,269.63023 229.09375,269.6875 z M 259.65625,298.875 C 259.65287,298.88416 253.25248,304.61284 249.46875,304.21875 C 248.61957,305.06931 246.85717,307.28684 246.46875,308.3125 C 242.10821,319.82675 242.4375,324.59375 242.4375,324.59375 C 243.9272,320.99239 245.31533,318.22975 247.5,316.25 C 248.43533,316.38252 248.22092,317.47545 249.15625,319.0625 C 251.09604,308.39979 260.55524,305.60935 259.65625,298.875 z M 214.625,307.1875 C 218.48457,309.78878 224.67742,316.35934 227.625,320.71875 C 223.40043,319.10515 219.38583,316.07814 213.59375,311.96875 C 211.51302,309.75511 212.64452,307.71064 214.625,307.1875 z M 197.09375,319.28125 C 199.90812,323.7831 205.39463,326.704 213.5,328.03125 C 214.33884,330.13257 215.21611,332.09364 216.15625,333.90625 C 212.1959,333.38312 210.56154,332.00339 207.40625,331.1875 C 203.70233,331.54078 200.18549,331.41151 197.875,328.28125 C 197.86251,328.28933 197.85622,328.30441 197.84375,328.3125 L 197.09375,319.28125 z "
             style="fill:#ffffff;fill-opacity:1;stroke:none;stroke-width:2;stroke-miterlimit:4;stroke-dasharray:none;stroke-opacity:1" />
        </g>
        <g
           id="g18745">
          <path
             sodipodi:nodetypes="ccccccccccscs"
             id="path8056"
             d="M 414.81481,216.38335 C 402.55726,200.53517 369.4943,189.41751 337.83069,193.89658 C 311.90476,187.28282 294.70899,209.24049 294.70899,209.24049 C 313.86038,207.7843 293.70884,210.28836 303.1746,216.38335 C 286.22726,229.73886 289.0469,256.29739 278.10847,259.63731 C 275.29111,263.56958 278.77437,262.18069 283.03913,267.46416 C 285.79278,278.42917 266.35805,284.43891 273.14814,297.53414 C 261.75722,310.89098 268.30122,316.72597 273.28042,322.99711 C 267.20164,328.17845 266.27642,334.53405 268.25397,354.47858 L 259.25926,377.22991 C 259.96677,397.20393 304.45691,408.0935 319.57672,390.98652 C 356.229,349.51709 401.36353,359.25084 401.78176,362.59666 C 408.55649,367.47447 446.31327,257.10873 414.81481,216.38335 z "
             style="fill:#000000;fill-opacity:1;stroke:none;stroke-width:2;stroke-miterlimit:4;stroke-dasharray:none;stroke-opacity:1" />
          <path
             id="path9999"
             d="M 328.125,194.40625 C 313.54167,194.48773 304.20658,202.3721 298.9375,207.25 L 305.15625,208.0625 C 305.15624,208.06251 302.08979,210.47189 301.59375,212.6875 C 301.09771,214.9031 304.75,216.375 304.75,216.375 C 284.62343,232.88983 291.52867,255.8322 279.09375,260.15625 C 276.42231,265.24859 288.20483,265.13404 284.9375,268.09375 C 283.74863,280.43993 273.41018,282.87812 273.09375,290.34375 C 273.0076,292.37615 273.21659,295.10054 274.28125,296.5625 C 276.65054,297.4088 280.30391,298.62823 281.59375,298.59375 C 283.86023,298.5319 286.54882,297.52502 288.59375,297.3125 C 290.84354,297.07869 294.04214,300.4645 296.125,298.96875 C 297.84309,297.73497 297.68605,294.06894 297.375,292.40625 C 296.89406,289.83538 300.04781,291.02914 299.90625,294.03125 C 299.70017,298.4018 301.58528,300.90175 295.71875,302.125 C 291.41401,303.02259 291.31297,298.53365 282.875,301.5625 C 278.4604,299.64302 277.40925,299.93293 273.0625,299.15625 L 271.15625,301.84375 C 263.21911,312.77339 272.68741,321.16578 274.875,323.125 C 265.85153,328.58657 268.95614,343.33695 269.3125,354.21875 C 269.41396,357.31667 262.79392,368.79139 261.5,375.875 C 259.43894,387.15828 274.93842,397.18828 295.37037,398.14385 C 293.66227,391.65901 293.06137,390.86143 288.36855,387.14037 C 289.98632,381.70756 288.34089,376.9323 288.375,373.12202 L 293.78042,378.42642 C 294.13535,368.81443 298.62512,366.4693 297.34375,348.65625 C 295.568,348.89306 294.28243,348.66735 291.8125,352.375 C 294.04793,341.39334 293.54722,343.41496 299.21875,338.34375 C 297.96022,336.05097 297.30722,333.76152 298.15625,331.46875 C 300.09507,333.24732 302.64999,339.52002 304.8125,335 C 301.72996,345.06258 315.05119,353.12042 323.8125,357.65625 C 329.98486,341.73434 324.93957,343.92655 324.875,334.09375 C 324.87501,334.09375 323.81086,334.86397 321.59375,334.9375 C 319.45798,335.00834 318.74488,333.76753 319.40625,332.3125 C 320.06764,330.85746 322.21875,330.40625 322.21875,330.40625 L 319.59375,326.5 C 318.02543,325.99171 317.2928,326.29166 315.75043,327.26421 C 313.15813,321.06467 313.61715,318.32446 309.81032,316.34571 C 313.02202,315.08031 312.75884,314.74046 316.53125,314.53125 C 314.54374,309.94346 313.75465,306.16172 314.9375,303.6875 C 319.03219,299.58696 321.23194,295.47553 322.875,291.375 C 327.2633,287.58073 330.33711,286.46841 333.34375,285.4375 C 332.56878,278.50129 329.43598,274.77186 321.59375,277.59375 C 321.50896,277.96969 321.35299,278.41618 321.09375,279.03125 C 315.4228,279.25547 314.73311,273.92447 311.25,272.46875 C 304.9109,274.53823 302.96281,273.91207 301.0625,273.25 L 305.03125,280.65625 C 300.14044,278.94821 290.71443,274.43321 293.78125,266.375 C 289.38564,270.05157 289.59775,264.48163 288.875,260.8125 C 295.80117,261.56451 301.18046,259.0999 306.875,256.34375 C 312.95503,263.99374 322.76201,256.90102 327.25,266.90625 L 328.15625,268.875 C 329.90959,266.56438 331.33002,264.14952 331.09375,260.5625 L 330.9375,245.46875 C 339.64168,238.13506 347.03802,231.80857 346.03125,223.78125 C 344.4063,215.68358 338.14095,215.46693 330.28125,216.375 C 335.66609,208.48599 345.34897,206.93254 356.625,205.28125 C 353.93182,200.567 342.98715,204.10776 334.40625,205.28125 C 332.6321,198.22238 355.43875,196.19527 360.59375,198.125 C 355.57529,192.22479 345.07049,195.39512 336.78125,195.21875 C 333.7126,194.62823 330.82562,194.39116 328.125,194.40625 z M 330.15625,201.84375 C 325.46308,205.19332 323.22194,206.41473 322.625,216.25 L 310.59375,216.25 C 309.13059,215.89949 310.46217,204.27738 314.5625,202.4375 C 314.5625,202.43749 312.25448,205.10137 313.21875,207.25 C 313.2689,207.36174 317.61732,205.04697 318.0625,205.34375 C 318.06248,205.34375 314.8555,207.28549 315.59375,211.09375 C 316.56689,211.04454 317.71874,211.21875 317.71875,211.21875 C 321.16792,202.78172 326.02834,202.54907 330.15625,201.84375 z M 315.21875,264.5625 L 309.96875,266.34375 C 307.47923,267.03435 304.80353,266.81244 301.15625,266.1875 L 301.84375,269.28125 C 304.04646,270.47398 307.15863,270.61117 311.125,269.6875 C 314.34878,271.18425 318.13019,272.34712 320.15625,274.5625 L 325.34375,272.53125 C 325.87394,271.79843 326.41883,271.0925 326.96875,270.40625 L 324.21875,268.0625 C 321.7976,263.99593 320.13338,267.11521 315.21875,264.5625 z M 343.25,285.09375 C 342.61663,284.9492 341.43443,286.44052 340.46875,286.34375 C 336.85834,302.09978 330.30695,293.45033 321.6875,315.1875 C 325.57271,312.61329 329.00554,308.44487 332.53125,303.40625 L 334.40625,305.8125 C 337.20757,297.95699 339.93324,297.99327 343.375,289.9375 C 343.89785,286.33088 343.74262,285.20618 343.25,285.09375 z M 296.5,302.03125 C 298.84701,304.15438 301.1322,306.22055 302.90625,309.375 C 304.08313,308.99693 304.41451,309.37688 304.59375,308.5 C 306.32883,310.58241 306.71515,314.72405 307.34375,318.6875 C 305.61156,316.8061 305.07297,313.70707 302.5625,312.9375 C 301.24269,312.91381 301.16743,313.68101 300.65625,314.8125 C 296.43184,312.34364 298.34102,306.65982 296.5,302.03125 z M 275.1875,308.78125 C 275.1875,308.78125 277.78124,314.93968 277.78125,315.875 C 277.78125,316.81033 278.71874,313.46873 278.71875,313.46875 C 279.76208,314.6604 282.01428,315.6803 282.84375,317.8125 C 282.57268,316.57289 282.12687,315.29323 281.15625,313.84375 C 281.15625,313.84375 284.23819,315.47222 285.875,316.96875 C 287.51182,318.46527 287.71874,319.81251 287.71875,319.8125 C 289.54564,319.32299 290.67478,319.18714 292.28125,319.6875 C 293.38749,327.798 294.98482,326.36955 296.3125,329.71875 C 293.95704,328.60415 291.64298,327.44632 290.875,324.5 L 290.125,326.375 C 288.67624,325.36626 287.49129,324.18873 287.15625,322.4375 C 287.13658,324.1109 284.9064,323.24368 283.8125,323.59375 C 282.81723,322.40283 281.14444,323.36286 279.3125,321.09375 C 278.9595,322.45855 279.45651,321.69193 278.15625,323.03125 C 273.88215,319.46427 274.20166,313.25186 275.1875,308.78125 z "
             style="fill:#ffffff;fill-opacity:1;stroke:none;stroke-width:2;stroke-miterlimit:4;stroke-opacity:1"
             sodipodi:nodetypes="cccscccscssssssccccssccccccccccsssccccccccccccccccccccccccccccccssscsccccccccccccccccccccccccccssccssccccccccc" />
        </g>
        <g
           id="g18749">
          <path
             style="fill:#000000;fill-opacity:1;stroke:none;stroke-width:2;stroke-miterlimit:4;stroke-dasharray:none;stroke-opacity:1"
             d="M 485.13228,372.65319 C 487.68268,336.91071 508.94423,329.16695 512.17683,298.7228 C 511.92957,269.30529 508.53323,240.44215 482.14286,221.85215 C 452.56996,201.02029 376.1253,186.12589 365.564,253.68883 C 364.10831,255.59778 356.43507,259.59531 357.12847,265.16856 C 353.4087,266.67922 353.50797,269.16193 353.93998,272.60082 C 363.81298,272.74671 358.83329,281.10186 357.29915,282.4809 C 357.29915,282.4809 341.71775,295.43949 345.86258,299.00301 C 349.00753,301.70687 351.89531,302.37285 350.07915,303.66365 C 350.07915,303.66365 350.41001,303.09601 347.51938,305.38161 C 343.87144,308.26601 344.56021,308.85812 344.92565,312.67837 C 345.29109,316.49862 347.31253,317.28904 348.51347,321.59794 C 349.7144,325.90683 348.98113,329.16569 348.98113,329.16569 C 346.50027,330.758 338.68499,336.32843 337.84076,337.89062 C 335.94192,341.40429 336.74238,353.27135 337.46043,355.57138 C 342.86964,371.06371 345.91638,367.89248 350.42367,367.80872 C 365.86454,359.31589 376.26477,372.91843 379.72235,376.99583 C 383.17993,381.07324 387.44201,389.85577 390.45161,396.01486 C 417.4465,378.65755 449.88201,374.19595 485.13228,372.65319 z "
             id="path3143"
             sodipodi:nodetypes="ccsccccscssscsccscc" />
          <path
             sodipodi:nodetypes="ccccssscsscsscsccssccccsscscccccccccccccsssssscccsccsccsssccscsccsscscccsscssscccccccscccccccccccccccccccssccc"
             id="path4115"
             d="M 423.56076,205.87848 C 397.35381,206.01793 372.37721,218.04397 366.71701,254.25348 C 365.29045,256.12425 357.75623,260.0417 358.43576,265.50348 C 355.35157,266.98395 355.29147,267.91462 354.77951,271.28473 C 366.3249,268.79562 366.88476,275.9758 365.56076,277.50348 C 364.34482,278.90646 343.2816,293.57569 347.99826,297.90973 C 350.99114,300.65982 357.30549,304.55191 355.12326,304.62848 C 349.7919,304.81555 344.31657,309.86581 348.68576,315.75348 C 356.45123,310.5706 372.84677,321.04116 373.12326,319.53473 C 373.67467,316.5304 371.03377,310.09195 374.71701,312.09723 C 383.4016,316.82543 382.03985,324.888 382.49826,328.62848 C 376.0285,321.99019 351.9627,317.43106 350.46701,322.87848 C 349.22737,327.39328 352.36642,326.88131 352.31076,328.06598 C 352.20689,330.27738 350.74826,331.78473 350.74826,331.78473 C 348.31701,333.3452 341.79174,336.72688 339.84201,340.12848 C 337.89561,343.52427 338.48207,351.8432 339.18576,354.09723 C 341.10744,355.75746 347.40157,360.80254 347.37326,360.59723 C 359.20477,353.21259 372.13338,347.68847 380.34201,343.00348 C 380.342,343.00348 383.31785,340.55325 385.27951,339.75348 C 387.24118,338.95371 388.74826,338.59723 388.74826,338.59723 C 388.74827,338.59724 395.7877,326.15905 396.15451,317.19098 C 397.42756,313.67629 401.71701,309.56598 401.71701,309.56598 C 395.22293,306.33306 392.89971,317.24287 389.24826,318.44098 C 387.67119,300.238 407.69558,298.1967 417.90451,289.22223 C 421.92776,285.68549 421.49826,274.59722 421.49826,274.59723 C 416.67702,271.59586 422.19361,280.0699 411.43576,280.09723 C 411.32993,279.25471 410.53574,274.87827 410.43576,274.15973 C 409.92448,270.48516 402.63402,267.38005 400.77951,266.47223 C 397.34556,267.20081 387.50439,264.79009 385.02951,272.65973 C 395.72526,273.33558 392.64422,273.83041 399.65451,276.06598 C 402.47421,273.99795 403.7963,271.2128 405.27951,271.97223 C 407.25746,272.24975 409.25627,277.15229 407.59201,278.34723 C 406.5243,279.23733 402.01684,276.20285 403.74826,282.44098 C 402.86078,282.78656 397.17433,282.55941 394.87326,287.37848 C 388.17614,287.70797 386.06977,287.65098 386.37326,283.90973 C 395.66382,285.03317 397.36193,279.62924 397.93576,277.28473 C 395.79716,277.65266 391.03115,277.16728 385.52951,276.56598 C 383.78595,278.07583 383.56252,282.56804 383.09201,282.65973 C 380.4617,277.97574 377.60869,281.10906 374.90451,274.56598 C 377.43816,273.82191 378.441,274.61166 378.12326,272.00348 C 376.12194,271.26594 377.18395,270.53418 375.56076,271.15973 C 372.18263,272.4616 372.46175,270.03671 373.27951,269.53473 C 389.18216,259.77281 399.55504,265.72996 403.43576,261.09723 C 403.70133,260.7802 402.02688,265.34819 402.37326,264.97223 C 404.60977,262.54476 411.70609,270.3236 411.43576,269.34723 C 410.67624,266.60396 417.61152,256.42833 420.81076,255.00348 C 425.10665,253.09022 434.75708,254.67274 436.43576,251.22223 C 438.75954,243.51113 440.96515,238.55834 449.02951,230.84723 C 458.29785,226.28394 471.02664,225.06647 482.21701,224.34723 C 482.98005,224.80875 481.6183,223.52476 480.96701,223.06598 C 467.8348,213.81534 445.2751,205.76294 423.56076,205.87848 z M 506.77951,262.25348 C 507.06967,263.41266 507.3437,264.59228 507.59201,265.75348 C 507.34357,264.56905 507.07275,263.41914 506.77951,262.25348 z M 362.87326,273.06598 C 361.07425,273.55683 360.18286,276.62733 362.40451,278.40973 C 362.40452,278.40974 363.83837,277.83417 363.90451,277.50348 C 363.97064,277.17279 364.82349,276.35385 364.59201,275.09723 C 364.36052,273.84063 362.87326,273.06598 362.87326,273.06598 z M 469.09201,274.81598 C 467.05881,274.80284 464.75575,275.23488 462.12326,276.25348 C 445.27529,282.77254 446.82967,298.17865 450.99826,299.15973 C 447.31832,302.40649 444.76889,305.52708 448.62326,308.40973 C 450.56459,309.86164 452.06076,303.78473 452.06076,303.78473 L 455.77951,300.72223 C 453.14947,296.94647 453.87658,294.95042 455.77951,292.94098 C 461.11279,287.30912 468.08996,281.27189 472.18576,284.19098 C 476.28156,287.11006 475.79475,290.5982 476.52951,292.94098 C 473.86739,286.66776 470.54506,283.97448 467.68576,287.78473 C 464.07952,292.59035 477.56046,293.22699 469.27951,301.90973 C 467.18189,303.09367 463.43744,303.03387 463.43576,308.40973 L 468.34201,309.19098 C 468.34201,309.19098 467.42114,310.07893 465.02951,311.84723 C 461.21792,314.66541 457.77176,311.02261 456.31076,311.72223 C 455.69554,312.01684 454.56006,314.43152 452.46701,314.22223 C 449.29158,313.42115 445.38232,312.2797 442.81076,314.87848 C 438.45411,319.28125 434.74046,329.61314 443.06076,329.56598 C 457.74809,329.48197 454.39265,320.77752 465.02951,318.06598 C 473.71347,315.85227 481.85385,306.38045 482.37326,296.62848 C 482.81152,288.28864 480.07127,274.88693 469.09201,274.81598 z M 372.29919,295.37418 C 375.00388,295.30197 375.96275,296.90986 375.68791,299.48612 C 375.66978,301.32994 375.52885,301.33647 374.61598,304.11244 C 374.84317,303.89144 359.66292,302.0103 360.43576,307.34723 C 359.52116,307.37524 359.00435,307.38561 358.74826,307.40973 C 358.75011,307.45263 358.74654,307.49086 358.74826,307.53473 C 358.92327,307.57518 359.08721,307.62967 358.74826,307.69098 C 358.74632,307.63459 358.75041,307.58957 358.74826,307.53473 C 358.56021,307.49127 358.35033,307.4472 358.74826,307.40973 C 358.86693,299.71146 355.25325,301.77245 355.8435,298.60451 C 363.97842,298.09745 371.93412,301.01308 372.71701,299.94098 C 374.07791,296.88676 374.05878,299.17997 372.29919,295.37418 z M 368.52951,307.31598 C 370.08141,307.29495 371.23253,307.58081 371.06076,309.19098 C 371.04263,311.0348 367.21271,309.59375 366.29985,312.36972 C 367.85403,313.42792 368.83522,314.502 368.81076,315.09723 L 363.59201,313.09723 C 363.43174,309.11708 365.14147,310.48437 365.49826,307.47223 C 366.51252,307.44515 367.59837,307.3286 368.52951,307.31598 z M 364.84201,325.78473 C 364.27919,328.40863 364.63066,329.4686 363.12326,332.72223 C 359.5083,332.67981 357.70336,333.00383 354.43576,334.00348 C 355.05387,331.11589 356.21988,330.13907 354.77951,326.22223 C 358.51279,326.5277 361.97911,326.99801 364.84201,325.78473 z M 469.40451,341.06598 C 462.05783,345.84335 454.67679,350.58379 448.37326,357.53473 C 448.37327,357.53474 448.61627,358.71719 445.56076,363.53473 C 442.54843,368.28419 437.01142,370.84167 436.34201,376.90973 L 453.46701,374.00348 C 457.35014,358.28863 465.04462,358.31511 469.40451,341.06598 z "
             style="fill:#ffffff;fill-opacity:1;stroke:none;stroke-width:2;stroke-miterlimit:4;stroke-dasharray:none;stroke-opacity:1" />
        </g>
      </g>
    </g>
  </g>
</svg>
